<svg width="156" height="13" viewBox="0 0 156 13" fill="none" xmlns="http://www.w3.org/2000/svg">
<path d="M155.5 6.5L150.5 3.61325V9.38675L155.5 6.5ZM0.5 7L3.48077 7V6H0.5L0.5 7ZM9.44231 7L15.4038 7V6L9.44231 6V7ZM21.3654 7L27.3269 7V6L21.3654 6V7ZM33.2885 7L39.25 7V6L33.2885 6V7ZM45.2115 7L51.1731 7V6L45.2115 6V7ZM57.1346 7L63.0962 7V6L57.1346 6V7ZM69.0577 7L75.0192 7V6L69.0577 6V7ZM80.9808 7L86.9423 7V6L80.9808 6V7ZM92.9039 7L98.8654 7V6L92.9039 6V7ZM104.827 7L110.788 7V6L104.827 6V7ZM116.75 7L122.712 7V6L116.75 6V7ZM128.673 7L134.635 7V6L128.673 6V7ZM140.596 7L146.558 7V6L140.596 6V7ZM155.5 6.5L145.5 0.726497V12.2735L155.5 6.5ZM0.5 7.5H3.48077V5.5H0.5L0.5 7.5ZM9.44231 7.5L15.4038 7.5V5.5L9.44231 5.5V7.5ZM21.3654 7.5L27.3269 7.5V5.5L21.3654 5.5V7.5ZM33.2885 7.5L39.25 7.5V5.5L33.2885 5.5V7.5ZM45.2115 7.5L51.1731 7.5V5.5L45.2115 5.5V7.5ZM57.1346 7.5L63.0962 7.5V5.5L57.1346 5.5V7.5ZM69.0577 7.5L75.0192 7.5V5.5L69.0577 5.5V7.5ZM80.9808 7.5L86.9423 7.5V5.5L80.9808 5.5V7.5ZM92.9039 7.5L98.8654 7.5V5.5L92.9039 5.5V7.5ZM104.827 7.5L110.788 7.5V5.5L104.827 5.5V7.5ZM116.75 7.5L122.712 7.5V5.5L116.75 5.5V7.5ZM128.673 7.5L134.635 7.5V5.5L128.673 5.5V7.5ZM140.596 7.5L146.558 7.5V5.5L140.596 5.5V7.5Z" fill="#B6B6B6"/>
</svg>
