<svg width="12" height="155" viewBox="0 0 12 155" fill="none" xmlns="http://www.w3.org/2000/svg">
<path d="M5.99999 155L8.88674 150L3.11324 150L5.99999 155ZM5.5 -2.18557e-08L5.5 2.98077L6.5 2.98077L6.5 2.18557e-08L5.5 -2.18557e-08ZM5.5 8.94231L5.5 14.9038L6.5 14.9038L6.5 8.94231L5.5 8.94231ZM5.5 20.8654L5.5 26.8269L6.5 26.8269L6.5 20.8654L5.5 20.8654ZM5.5 32.7885L5.5 38.75L6.5 38.75L6.5 32.7885L5.5 32.7885ZM5.5 44.7115L5.5 50.6731L6.5 50.6731L6.5 44.7115L5.5 44.7115ZM5.5 56.6346L5.5 62.5962L6.5 62.5962L6.5 56.6346L5.5 56.6346ZM5.5 68.5577L5.5 74.5192L6.5 74.5192L6.5 68.5577L5.5 68.5577ZM5.5 80.4808L5.5 86.4423L6.5 86.4423L6.5 80.4808L5.5 80.4808ZM5.5 92.4039L5.5 98.3654L6.5 98.3654L6.5 92.4039L5.5 92.4039ZM5.5 104.327L5.5 110.288L6.5 110.288L6.5 104.327L5.5 104.327ZM5.49999 116.25L5.49999 122.212L6.49999 122.212L6.49999 116.25L5.49999 116.25ZM5.49999 128.173L5.49999 134.135L6.49999 134.135L6.49999 128.173L5.49999 128.173ZM5.49999 140.096L5.49999 146.058L6.49999 146.058L6.49999 140.096L5.49999 140.096ZM5.99999 155L11.7735 145L0.226491 145L5.99999 155ZM5 -4.37114e-08L5 2.98077L7 2.98077L7 4.37114e-08L5 -4.37114e-08ZM5 8.94231L5 14.9038L7 14.9038L7 8.94231L5 8.94231ZM5 20.8654L5 26.8269L7 26.8269L7 20.8654L5 20.8654ZM5 32.7885L5 38.75L7 38.75L7 32.7885L5 32.7885ZM5 44.7115L5 50.6731L7 50.6731L7 44.7115L5 44.7115ZM5 56.6346L5 62.5962L7 62.5962L7 56.6346L5 56.6346ZM5 68.5577L5 74.5192L7 74.5192L7 68.5577L5 68.5577ZM5 80.4808L5 86.4423L7 86.4423L7 80.4808L5 80.4808ZM5 92.4039L5 98.3654L7 98.3654L7 92.4039L5 92.4039ZM5 104.327L5 110.288L7 110.288L7 104.327L5 104.327ZM4.99999 116.25L4.99999 122.212L6.99999 122.212L6.99999 116.25L4.99999 116.25ZM4.99999 128.173L4.99999 134.135L6.99999 134.135L6.99999 128.173L4.99999 128.173ZM4.99999 140.096L4.99999 146.058L6.99999 146.058L6.99999 140.096L4.99999 140.096Z" fill="#B6B6B6"/>
</svg>
