<svg width="307" height="83" viewBox="0 0 307 83" fill="none" xmlns="http://www.w3.org/2000/svg">
<path d="M6 83L0.226497 73H11.7735L6 83ZM6 1L5 1V0L6 0V1ZM307 2H305.02V0L307 0V2ZM301.059 2L297.099 2V0L301.059 0V2ZM293.138 2L289.178 2V0L293.138 0V2ZM285.217 2L281.257 2V0L285.217 0V2ZM277.296 2L273.336 2V0L277.296 0V2ZM269.375 2L265.414 2V0L269.375 0V2ZM261.454 2L257.493 2V0L261.454 0V2ZM253.533 2L249.572 2V0L253.533 0V2ZM245.612 2L241.651 2V0L245.612 0V2ZM237.691 2L233.73 2V0L237.691 0V2ZM229.77 2L225.809 2V0L229.77 0V2ZM221.849 2L217.888 2V0L221.849 0V2ZM213.928 2L209.967 2V0L213.928 0V2ZM206.007 2L202.046 2V0L206.007 0V2ZM198.086 2L194.125 2V0L198.086 0V2ZM190.164 2L186.204 2V0L190.164 0V2ZM182.243 2L178.283 2V0L182.243 0V2ZM174.322 2L170.362 2V0L174.322 0V2ZM166.401 2L162.441 2V0L166.401 0V2ZM158.48 2L154.52 2V0L158.48 0V2ZM150.559 2L146.599 2V0L150.559 0V2ZM142.638 2L138.678 2V0L142.638 0V2ZM134.717 2L130.757 2V0L134.717 0V2ZM126.796 2L122.836 2V0L126.796 0V2ZM118.875 2L114.915 2V0L118.875 0V2ZM110.954 2L106.993 2V0L110.954 0V2ZM103.033 2L99.0724 2V0L103.033 0V2ZM95.1119 2L91.1513 2V0L95.1119 0V2ZM87.1908 2L83.2303 2V0L87.1908 0V2ZM79.2698 2L75.3092 2V0L79.2698 0V2ZM71.3487 2L67.3882 2V0L71.3487 0V2ZM63.4277 2L59.4672 2V0L63.4277 0V2ZM55.5066 2L51.5461 2V0L55.5066 0V2ZM47.5856 2L43.625 2V0L47.5856 0V2ZM39.6645 2L35.7039 2V0L39.6645 0V2ZM31.7434 2L27.7829 2V0L31.7434 0V2ZM23.8223 2L19.8618 2V0L23.8223 0V2ZM15.9012 2L11.9407 2V0L15.9012 0V2ZM7.98017 2L6 2V0L7.98017 0V2ZM7 1V3.05H5V1L7 1ZM7 7.15L7 11.25H5V7.15H7ZM7 15.35L7 19.45H5V15.35H7ZM7 23.55L7 27.65H5L5 23.55H7ZM7 31.75L7 35.85H5L5 31.75H7ZM7 39.95L7 44.05H5L5 39.95H7ZM7 48.15L7 52.25H5L5 48.15H7ZM7 56.35L7 60.45H5L5 56.35H7ZM7 64.55L7 68.65H5L5 64.55H7ZM7 72.75L7 76.85H5L5 72.75H7Z" fill="#B6B6B6"/>
</svg>
