<svg width="274" height="58" viewBox="0 0 274 58" fill="none" xmlns="http://www.w3.org/2000/svg">
<path d="M274 6L264 0.226497V11.7735L274 6ZM1 6V5H0V6H1ZM2 58V56.1429H0V58H2ZM2 52.4286V48.7143H0V52.4286H2ZM2 45V41.2857H0V45H2ZM2 37.5714V33.8571H0V37.5714H2ZM2 30.1429V26.4286H0V30.1429H2ZM2 22.7143V19H0V22.7143H2ZM2 15.2857V11.5714H0V15.2857H2ZM2 7.85714V6H0V7.85714H2ZM1 7H3.00735V5H1V7ZM7.02206 7H11.0368V5H7.02206V7ZM15.0515 7H19.0662V5H15.0515V7ZM23.0809 7H27.0956V5H23.0809V7ZM31.1103 7H35.125V5H31.1103V7ZM39.1397 7H43.1544V5H39.1397V7ZM47.1691 7H51.1838V5H47.1691V7ZM55.1985 7H59.2132V5H55.1985V7ZM63.2279 7H67.2426V5H63.2279V7ZM71.2574 7H75.2721V5H71.2574V7ZM79.2868 7H83.3015V5H79.2868V7ZM87.3162 7H91.3309V5H87.3162V7ZM95.3456 7H99.3603V5H95.3456V7ZM103.375 7H107.39V5H103.375V7ZM111.404 7H115.419V5H111.404V7ZM119.434 7H123.449V5H119.434V7ZM127.463 7H131.478V5H127.463V7ZM135.493 7H139.507V5H135.493V7ZM143.522 7H147.537V5H143.522V7ZM151.552 7H155.566V5H151.552V7ZM159.581 7H163.596V5H159.581V7ZM167.61 7H171.625V5H167.61V7ZM175.64 7H179.655V5H175.64V7ZM183.669 7H187.684V5H183.669V7ZM191.699 7H195.713V5H191.699V7ZM199.728 7H203.743V5H199.728V7ZM207.757 7H211.772V5H207.757V7ZM215.787 7H219.802V5H215.787V7ZM223.816 7H227.831V5H223.816V7ZM231.846 7H235.86V5H231.846V7ZM239.875 7H243.89V5H239.875V7ZM247.905 7H251.919V5H247.905V7ZM255.934 7H259.949V5H255.934V7ZM263.963 7H267.978V5H263.963V7Z" fill="#B6B6B6"/>
</svg>
