<svg width="549" height="200" viewBox="0 0 549 200" fill="none" xmlns="http://www.w3.org/2000/svg">
<rect x="22.5" y="13.5" width="507" height="175" rx="27.5" stroke="white" stroke-width="5"/>
<path fill-rule="evenodd" clip-rule="evenodd" d="M56 19C41.0883 19 29 31.0883 29 46V156C29 170.912 41.0883 183 56 183H256C270.912 183 283 170.912 283 156V46C283 31.0883 270.912 19 256 19H56ZM87.7 130.8C93.2333 134.733 100.233 136.7 108.7 136.7C114.3 136.7 119.133 135.733 123.2 133.8C127.267 131.867 130.367 129.2 132.5 125.8C134.633 122.333 135.7 118.433 135.7 114.1C135.7 109.967 134.633 106.533 132.5 103.8C130.367 101.067 127.833 98.9333 124.9 97.4C122.033 95.8667 118.367 94.2667 113.9 92.6C110.033 91.1333 107.2 89.9 105.4 88.9C103.667 87.8333 102.8 86.5 102.8 84.9C102.8 83.7667 103.1 82.9 103.7 82.3C104.3 81.6333 105.067 81.3 106 81.3C107.333 81.3 108.467 81.7333 109.4 82.6C110.333 83.4667 110.833 84.9 110.9 86.9H134.8C134.533 79.6333 131.833 74 126.7 70C121.633 66 114.767 64 106.1 64C100.967 64 96.3333 64.8333 92.2 66.5C88.1333 68.1667 84.9 70.6333 82.5 73.9C80.1667 77.1 79 81 79 85.6C78.9333 90.2 79.9667 93.9667 82.1 96.9C84.2333 99.8333 86.7667 102.067 89.7 103.6C92.7 105.133 96.4667 106.7 101 108.3C104.8 109.633 107.6 110.833 109.4 111.9C111.2 112.9 112.1 114.233 112.1 115.9C112.1 117.1 111.667 118 110.8 118.6C110 119.133 109 119.4 107.8 119.4C104.533 119.4 102.733 117.367 102.4 113.3H78.8C79.2667 120.967 82.2333 126.8 87.7 130.8ZM145.7 81.8C142.9 87.2667 141.5 93.5 141.5 100.5C141.5 107.5 142.9 113.733 145.7 119.2C148.567 124.667 152.633 128.933 157.9 132C163.167 135 169.367 136.5 176.5 136.5C182.633 136.5 188.1 135.367 192.9 133.1C197.767 130.767 201.7 127.5 204.7 123.3C207.767 119.1 209.8 114.2 210.8 108.6H187.4C186.333 110.933 184.8 112.767 182.8 114.1C180.867 115.367 178.633 116 176.1 116C172.367 116 169.4 114.6 167.2 111.8C165.067 109 164 105.233 164 100.5C164 95.7667 165.067 92 167.2 89.2C169.4 86.4 172.367 85 176.1 85C178.633 85 180.867 85.6667 182.8 87C184.8 88.2667 186.333 90.0667 187.4 92.4H210.8C209.8 86.8 207.767 81.9 204.7 77.7C201.7 73.5 197.767 70.2667 192.9 68C188.1 65.6667 182.633 64.5 176.5 64.5C169.367 64.5 163.167 66.0333 157.9 69.1C152.633 72.1 148.567 76.3333 145.7 81.8ZM240.993 91.6V82.9H265.993V65.2H218.793V136H265.993V118.3H240.993V108.3H262.993V91.6H240.993Z" fill="white"/>
<path d="M367.9 136H345.7L322.2 100.4V136H300V65.2H322.2L345.7 101.4V65.2H367.9V136ZM400.13 65.2V136H377.93V65.2H400.13ZM408.156 100.5C408.156 93.5 409.556 87.2667 412.356 81.8C415.223 76.3333 419.29 72.1 424.556 69.1C429.823 66.0333 436.023 64.5 443.156 64.5C449.29 64.5 454.756 65.6667 459.556 68C464.423 70.2667 468.356 73.5 471.356 77.7C474.423 81.9 476.456 86.8 477.456 92.4H454.056C452.99 90.0667 451.456 88.2667 449.456 87C447.523 85.6667 445.29 85 442.756 85C439.023 85 436.056 86.4 433.856 89.2C431.723 92 430.656 95.7667 430.656 100.5C430.656 105.233 431.723 109 433.856 111.8C436.056 114.6 439.023 116 442.756 116C445.29 116 447.523 115.367 449.456 114.1C451.456 112.767 452.99 110.933 454.056 108.6H477.456C476.456 114.2 474.423 119.1 471.356 123.3C468.356 127.5 464.423 130.767 459.556 133.1C454.756 135.367 449.29 136.5 443.156 136.5C436.023 136.5 429.823 135 424.556 132C419.29 128.933 415.223 124.667 412.356 119.2C409.556 113.733 408.156 107.5 408.156 100.5Z" fill="white"/>
</svg>
