<svg width="221" height="85" viewBox="0 0 221 85" fill="none" xmlns="http://www.w3.org/2000/svg">
<path d="M215.102 84.2527L220.953 74.2977L209.406 74.2082L215.102 84.2527ZM215.728 3.53564L216.728 3.5434L216.736 2.54343L215.736 2.53567L215.728 3.53564ZM0.348496 2.86561L2.34268 2.88107L2.35819 0.88113L0.364003 0.865667L0.348496 2.86561ZM6.33104 2.912L10.3194 2.94292L10.3349 0.942982L6.34655 0.912056L6.33104 2.912ZM14.3078 2.97385L18.2961 3.00477L18.3116 1.00483L14.3233 0.973908L14.3078 2.97385ZM22.2845 3.0357L26.2729 3.06663L26.2884 1.06669L22.3 1.03576L22.2845 3.0357ZM30.2612 3.09755L34.2496 3.12848L34.2651 1.12854L30.2767 1.09761L30.2612 3.09755ZM38.238 3.1594L42.2263 3.19033L42.2418 1.19039L38.2535 1.15946L38.238 3.1594ZM46.2147 3.22126L50.203 3.25218L50.2185 1.25224L46.2302 1.22132L46.2147 3.22126ZM54.1914 3.28311L58.1798 3.31403L58.1953 1.31409L54.2069 1.28317L54.1914 3.28311ZM62.1681 3.34496L66.1565 3.37589L66.172 1.37595L62.1836 1.34502L62.1681 3.34496ZM70.1449 3.40681L74.1332 3.43774L74.1487 1.4378L70.1604 1.40687L70.1449 3.40681ZM78.1216 3.46867L82.11 3.49959L82.1255 1.49965L78.1371 1.46873L78.1216 3.46867ZM86.0983 3.53052L90.0867 3.56144L90.1022 1.5615L86.1138 1.53058L86.0983 3.53052ZM94.0751 3.59237L98.0634 3.6233L98.0789 1.62336L94.0906 1.59243L94.0751 3.59237ZM102.052 3.65422L106.04 3.68515L106.056 1.68521L102.067 1.65428L102.052 3.65422ZM110.029 3.71607L114.017 3.747L114.032 1.74706L110.044 1.71613L110.029 3.71607ZM118.005 3.77793L121.994 3.80885L122.009 1.80891L118.021 1.77799L118.005 3.77793ZM125.982 3.83978L129.97 3.8707L129.986 1.87076L125.998 1.83984L125.982 3.83978ZM133.959 3.90163L137.947 3.93256L137.963 1.93262L133.974 1.90169L133.959 3.90163ZM141.935 3.96348L145.924 3.99441L145.939 1.99447L141.951 1.96354L141.935 3.96348ZM149.912 4.02533L153.901 4.05626L153.916 2.05632L149.928 2.02539L149.912 4.02533ZM157.889 4.08719L161.877 4.11811L161.893 2.11817L157.904 2.08725L157.889 4.08719ZM165.866 4.14904L169.854 4.17996L169.869 2.18002L165.881 2.1491L165.866 4.14904ZM173.842 4.21089L177.831 4.24182L177.846 2.24188L173.858 2.21095L173.842 4.21089ZM181.819 4.27274L185.807 4.30367L185.823 2.30373L181.835 2.2728L181.819 4.27274ZM189.796 4.33459L193.784 4.36552L193.8 2.36558L189.811 2.33465L189.796 4.33459ZM197.772 4.39645L201.761 4.42737L201.776 2.42743L197.788 2.39651L197.772 4.39645ZM205.749 4.4583L209.738 4.48923L209.753 2.48929L205.765 2.45836L205.749 4.4583ZM213.726 4.52015L215.72 4.53561L215.736 2.53567L213.741 2.52021L213.726 4.52015ZM214.728 3.52789L214.712 5.54582L216.712 5.56132L216.728 3.5434L214.728 3.52789ZM214.681 9.58167L214.65 13.6175L216.65 13.633L216.681 9.59717L214.681 9.58167ZM214.618 17.6534L214.587 21.6892L216.587 21.7047L216.618 17.6689L214.618 17.6534ZM214.556 25.7251L214.525 29.7609L216.524 29.7764L216.556 25.7406L214.556 25.7251ZM214.493 33.7968L214.462 37.8326L216.462 37.8481L216.493 33.8123L214.493 33.7968ZM214.431 41.8685L214.399 45.9043L216.399 45.9198L216.431 41.884L214.431 41.8685ZM214.368 49.9402L214.337 53.976L216.337 53.9915L216.368 49.9557L214.368 49.9402ZM214.305 58.0119L214.274 62.0477L216.274 62.0632L216.305 58.0274L214.305 58.0119ZM214.243 66.0836L214.212 70.1194L216.212 70.1349L216.243 66.0991L214.243 66.0836ZM214.18 74.1553L214.149 78.1911L216.149 78.2066L216.18 74.1708L214.18 74.1553Z" fill="#B6B6B6"/>
</svg>
